<?xml version="1.0" encoding="UTF-8" standalone="no"?>
<!DOCTYPE svg PUBLIC "-//W3C//DTD SVG 1.1//EN" "http://www.w3.org/Graphics/SVG/1.1/DTD/svg11.dtd">
<svg xmlns="http://www.w3.org/2000/svg" version="1.1" viewBox="0.00 0.00 50.00 50.00">
<path fill="#000000" d="
  M 39.03 25.06
  Q 39.03 25.95 38.73 26.24
  Q 34.39 30.55 17.38 47.27
  A 1.23 1.23 0.0 0 1 15.45 47.01
  L 15.18 46.54
  A 0.96 0.95 -37.3 0 1 15.34 45.38
  Q 26.89 34.10 35.78 25.30
  Q 35.86 25.22 35.86 25.06
  Q 35.86 24.90 35.78 24.82
  Q 26.89 16.02 15.33 4.75
  A 0.96 0.95 37.3 0 1 15.17 3.59
  L 15.44 3.12
  A 1.23 1.23 0.0 0 1 17.37 2.86
  Q 34.39 19.57 38.73 23.88
  Q 39.03 24.17 39.03 25.06
  Z"
/>
</svg>
