<?xml version="1.0" encoding="UTF-8" standalone="no"?>
<!DOCTYPE svg PUBLIC "-//W3C//DTD SVG 1.1//EN" "http://www.w3.org/Graphics/SVG/1.1/DTD/svg11.dtd">
<svg xmlns="http://www.w3.org/2000/svg" version="1.1" viewBox="0.00 0.00 50.00 50.00">
<path fill="#000000" d="
  M 14.20 25.05
  C 14.20 25.06 14.22 25.27 14.24 25.29
  Q 22.68 33.72 34.60 45.30
  A 1.20 1.20 0.0 0 1 34.36 47.20
  L 33.88 47.48
  A 0.99 0.98 -37.5 0 1 32.70 47.33
  Q 14.51 29.50 11.28 26.24
  Q 10.99 25.94 10.99 25.05
  Q 10.99 24.17 11.28 23.87
  Q 14.51 20.61 32.72 2.79
  A 0.99 0.98 37.6 0 1 33.90 2.64
  L 34.38 2.92
  A 1.20 1.20 0.0 0 1 34.61 4.82
  Q 22.69 16.40 14.24 24.82
  C 14.22 24.84 14.20 25.05 14.20 25.05
  Z"
/>
</svg>
